<?xml version="1.0" encoding="UTF-8" standalone="no"?>
<!DOCTYPE svg PUBLIC "-//W3C//DTD SVG 1.1//EN" "http://www.w3.org/Graphics/SVG/1.1/DTD/svg11.dtd">
<svg width="100%" height="100%" viewBox="0 0 256 256" version="1.1" xmlns="http://www.w3.org/2000/svg" xmlns:xlink="http://www.w3.org/1999/xlink" xml:space="preserve" xmlns:serif="http://www.serif.com/" style="fill-rule:evenodd;clip-rule:evenodd;stroke-linecap:round;stroke-linejoin:round;stroke-miterlimit:1.5;">
    <g transform="matrix(10.919,0,0,11.9401,-52.8403,-55.6541)">
        <path d="M28.285,6.826L28.285,23.937C28.285,25.117 27.237,26.075 25.946,26.075L7.178,26.075C5.887,26.075 4.839,25.117 4.839,23.937L4.839,6.826C4.839,5.645 5.887,4.687 7.178,4.687L25.946,4.687C27.237,4.687 28.285,5.645 28.285,6.826Z" style="fill:white;"/>
        <path d="M28.285,6.826L28.285,23.937C28.285,25.117 27.237,26.075 25.946,26.075L7.178,26.075C5.887,26.075 4.839,25.117 4.839,23.937L4.839,6.826C4.839,5.645 5.887,4.687 7.178,4.687L25.946,4.687C27.237,4.687 28.285,5.645 28.285,6.826ZM28.01,6.826C28.01,5.784 27.085,4.938 25.946,4.938L7.178,4.938C6.039,4.938 5.114,5.784 5.114,6.826L5.114,23.937C5.114,24.978 6.039,25.824 7.178,25.824L25.946,25.824C27.085,25.824 28.01,24.978 28.01,23.937L28.01,6.826Z"/>
    </g>
    <g transform="matrix(1.38986,0,0,1.38986,-15.4235,-47.6314)">
        <g id="Layer1">
            <g>
                <g transform="matrix(0.719497,0,0,0.719497,11.0972,34.2707)">
                    <path d="M129.707,28.14C135.496,36.595 132.617,39.239 133.837,46.467L134.459,49.229C134.674,49.998 134.935,50.815 135.252,51.688C135.646,52.772 135.838,54.058 135.871,55.493C125.705,58.34 121.563,60.385 102.732,59.942C79.076,59.387 77.766,59.096 54.242,60.246C66.219,47.032 76.036,41.157 89.907,34.333C107.359,25.749 124.896,28.149 129.707,28.14Z" style="fill:rgb(229,119,10);stroke:black;stroke-width:1px;"/>
                </g>
                <g transform="matrix(0.719497,0,0,0.719497,11.0972,34.2707)">
                    <path d="M133.508,38.24L129.707,28.14C132.557,21.793 156.89,8.777 169.61,27.633C171.389,30.27 180.82,43.95 177.04,65.991L179.609,87.742C181.003,93.348 183.063,100.384 186.081,109.288C195.323,136.562 186.615,140.513 197.072,180.255C197.273,181.02 196.524,189.72 194.474,191.75C193.57,192.645 192.485,194.209 192.179,194.187L192.175,194.156C189.669,195.224 177.832,200.261 159.232,201.552C143.762,202.626 146.656,204.4 133.15,194.799C125.844,189.604 123.527,178.133 124.147,143.231C124.699,112.165 125.392,109.815 127.602,89.277C128.304,82.749 138.456,60.503 135.252,51.688C132.887,45.179 133.634,41.778 133.508,38.24Z" style="stroke:black;stroke-width:1px;"/>
                </g>
                <path d="M138.48,81.728C135.433,82.407 130.074,93.808 128.869,99.323C128.313,101.867 126.643,109.513 128.328,131.868C128.691,131.497 132.71,127.085 132.71,127.085L133.349,134.932L137.576,127.024L138.903,140.276L144.769,130.324C144.769,130.324 145.71,131.429 144.487,146.434C146.502,144.662 147.519,142.196 147.519,142.196C147.519,142.196 148.32,156.174 148.364,157.337C148.809,168.901 147.774,175.301 156.303,184.776C155.886,168.461 154.752,168.588 154.94,152.363C155.516,102.648 149.817,85.991 138.48,81.728Z" style="fill:rgb(163,28,28);stroke:black;stroke-width:0.72px;"/>
                <path d="M119.042,179.912C119.685,179.906 120.194,179.684 120.733,179.705C119.728,181.883 120.471,201.741 120.471,201.741C120.471,201.741 124.377,200.625 123.016,202.178C121.829,203.531 120.199,203.314 115.896,203.597C107.928,204.123 108.452,205.035 107.57,205.414C106.781,205.753 105.793,205.309 105.003,205.648C106.268,203.757 105.841,200.793 118.545,201.714C119.087,182.093 119.042,179.912 119.042,179.912Z" style="fill:rgb(163,28,28);stroke:black;stroke-width:0.72px;"/>
                <path d="M136.494,177.883C136.494,177.883 137.494,198.885 137.496,200.686C129.908,199.957 126.62,201.257 124.189,204.536C125.467,204.228 127.241,204.581 128.19,204.265C134.363,202.214 142.743,203.57 143.206,201.808C143.198,200.378 138.939,200.747 138.939,200.747L138.306,177.55L136.494,177.883Z" style="fill:rgb(163,28,28);stroke:black;stroke-width:0.72px;"/>
                <ellipse cx="111.05" cy="58.187" rx="0.902" ry="0.971" style="stroke:rgb(163,28,28);stroke-width:0.72px;"/>
                <g transform="matrix(0.719497,0,0,0.719497,11.0972,34.2707)">
                    <path d="M54.242,60.246C60.105,57.647 107.124,41.599 133.342,42.279" style="fill:none;stroke:black;stroke-width:1px;"/>
                </g>
            </g>
        </g>
    </g>
</svg>
